<svg version="1.1" id="Layer_1" xmlns="http://www.w3.org/2000/svg" xmlns:xlink="http://www.w3.org/1999/xlink" x="0px" y="0px"
	 width="100%" viewBox="0 0 800 800" enable-background="new 0 0 800 800" xml:space="preserve">
<path fill="#000000" opacity="1.000000" stroke="none" 
	d="
M801.000000,312.000000 
	C801.000000,475.333344 801.000000,638.166687 801.000000,801.000000 
	C534.333313,801.000000 267.666656,801.000000 1.000000,801.000000 
	C1.000000,534.333313 1.000000,267.666656 1.000000,1.000000 
	C267.666656,1.000000 534.333313,1.000000 801.000000,1.000000 
	C801.000000,104.500000 801.000000,208.000000 801.000000,312.000000 
M284.151764,55.008976 
	C272.104309,54.641903 260.950714,56.621655 252.354904,67.225700 
	C249.937164,71.472534 246.996429,75.512505 245.216934,80.011772 
	C242.076416,87.952316 239.608963,96.161324 236.922211,104.278610 
	C231.553833,120.497589 226.227707,136.730545 220.312546,153.414429 
	C212.264038,177.278061 204.215515,201.141693 196.005997,225.756271 
	C195.139526,228.233398 194.240234,230.699600 193.411957,233.189423 
	C188.229080,248.769287 183.062057,264.354431 177.299164,280.380951 
	C175.726501,285.204224 174.148178,290.025635 172.582245,294.851074 
	C168.034317,308.865723 163.491333,322.881958 158.347809,337.335602 
	C155.730652,344.895172 153.022858,352.424866 150.516052,360.020844 
	C145.909744,373.978729 141.421799,387.975647 136.284302,402.409851 
	C135.028214,406.263306 133.819031,410.132812 132.507599,413.967346 
	C127.780663,427.788574 122.945145,441.573120 118.289276,455.418152 
	C112.177391,473.593018 106.196815,491.812073 99.831177,510.687256 
	C97.694435,516.859863 95.479256,523.006714 93.436104,529.210144 
	C87.973419,545.795898 82.584526,562.406006 76.823555,579.667603 
	C76.203575,581.159668 75.485191,582.619202 74.979057,584.148926 
	C70.590324,597.413208 66.239738,610.690002 61.271927,624.385376 
	C61.074360,625.179321 60.924335,625.988770 60.672131,626.764954 
	C56.751259,638.831665 52.817142,650.894104 48.278263,663.352295 
	C43.864922,676.370178 38.753029,689.200195 35.189274,702.446655 
	C28.558321,727.093811 46.924526,747.114441 70.265923,747.054871 
	C126.370934,746.911621 182.476746,747.077576 238.581726,746.929626 
	C248.721893,746.902893 257.437561,742.942139 264.714844,734.723083 
	C267.170837,729.785339 270.238617,725.048218 271.939240,719.862793 
	C274.482666,712.107605 276.064392,704.036987 278.796173,695.988342 
	C279.436279,695.523071 280.455353,695.185303 280.661011,694.573914 
	C285.535400,680.081848 290.322266,665.560303 295.734222,650.624390 
	C301.161926,634.099426 306.589630,617.574402 312.721252,601.005371 
	C321.085571,608.442078 329.569031,615.749695 337.788544,623.343201 
	C353.342621,637.712585 368.740143,652.251404 384.212341,666.709534 
	C394.119690,675.967590 404.049805,685.201355 413.959900,694.456421 
	C429.189667,708.679504 444.457489,722.862305 459.615204,737.161865 
	C466.525635,743.681152 474.689117,746.930725 484.070221,746.966858 
	C507.208710,747.055969 530.347900,747.010986 553.486694,746.974121 
	C568.297180,746.950562 583.107483,746.845581 598.866455,746.899292 
	C643.635986,746.932373 688.406067,747.112061 733.174744,746.934937 
	C754.657715,746.849976 771.826355,728.993958 767.562195,706.574585 
	C764.602173,691.011719 757.876404,676.165161 752.998291,660.246155 
	C752.311951,658.464844 751.569336,656.702942 750.948120,654.899231 
	C744.986389,637.590027 739.045166,620.273804 733.009033,602.170715 
	C725.283752,579.112305 717.558533,556.053955 709.719177,532.256653 
	C705.457764,519.766724 701.211975,507.271484 696.930908,494.788300 
	C691.580078,479.185669 686.200317,463.593018 680.955505,447.233368 
	C675.298401,430.595306 669.691284,413.940063 663.970764,397.323822 
	C657.717834,379.161133 651.360046,361.034515 644.998596,342.107086 
	C641.996460,332.888428 639.099976,323.633728 635.970886,314.458374 
	C628.745544,293.271637 621.407471,272.123352 614.008972,250.171234 
	C613.003479,246.934402 612.066345,243.674469 610.981201,240.464539 
	C604.380432,220.939667 597.746155,201.426163 591.013245,181.140427 
	C590.009338,178.272156 588.987549,175.410004 588.004578,172.534561 
	C582.347534,155.986664 576.699646,139.435608 571.002625,122.097321 
	C566.843933,109.743675 562.731689,97.374084 558.498657,85.045982 
	C557.209717,81.292198 555.587585,77.652794 554.005676,73.322624 
	C553.375122,72.534073 552.744629,71.745529 552.010681,70.300865 
	C551.354858,69.496056 550.699097,68.691246 549.784302,67.270332 
	C541.934387,58.328144 531.966431,54.894539 520.197449,54.932999 
	C459.617523,55.130966 399.036835,55.102901 338.456421,55.163818 
	C322.647675,55.179714 306.839020,55.231644 290.201477,55.065582 
	C288.490814,55.103863 286.780151,55.142143 284.151764,55.008976 
z"/>
<path fill="#0078D4" opacity="1.000000" stroke="none" 
	d="
M597.917908,746.777100 
	C583.107483,746.845581 568.297180,746.950562 553.486694,746.974121 
	C530.347900,747.010986 507.208710,747.055969 484.070221,746.966858 
	C474.689117,746.930725 466.525635,743.681152 459.615204,737.161865 
	C444.457489,722.862305 429.189667,708.679504 413.959900,694.456421 
	C404.049805,685.201355 394.119690,675.967590 384.212341,666.709534 
	C368.740143,652.251404 353.342621,637.712585 337.788544,623.343201 
	C329.569031,615.749695 321.085571,608.442078 312.359863,600.661255 
	C311.429382,599.164734 311.123230,597.735779 310.248840,596.904602 
	C304.278778,591.229431 298.244171,585.618896 292.118561,580.111816 
	C288.230682,576.616577 284.150208,573.335571 280.057739,569.630371 
	C277.649231,567.178894 275.339111,565.055603 272.861694,562.658569 
	C271.128387,560.925659 269.562317,559.466370 267.823059,557.722229 
	C258.905884,549.828247 249.780319,542.601257 241.596008,534.431335 
	C238.068619,530.910217 235.082687,525.658447 234.318512,520.804382 
	C232.717407,510.634247 240.674210,503.072876 251.726715,503.039032 
	C283.189789,502.942719 314.653137,502.949554 346.576813,502.949829 
	C369.020752,503.044678 391.004303,503.105469 412.992004,503.569153 
	C413.524811,506.392120 413.826019,508.889374 414.616760,511.220581 
	C423.858398,538.466064 433.243530,565.662903 442.452942,592.919189 
	C456.029938,633.101990 469.476898,673.328674 483.022797,713.522034 
	C486.155670,722.817871 489.583099,732.015564 492.637146,741.336426 
	C493.947144,745.334595 496.065796,746.724854 500.317139,745.255066 
	C510.763977,745.685730 520.880981,745.860107 531.466858,746.044373 
	C551.984741,746.052246 572.033752,746.030212 592.082581,746.080078 
	C594.028198,746.084900 595.972839,746.534119 597.917908,746.777100 
z"/>
<path fill="#31ACE9" opacity="1.000000" stroke="none" 
	d="
M645.047974,342.892181 
	C651.360046,361.034515 657.717834,379.161133 663.970764,397.323822 
	C669.691284,413.940063 675.298401,430.595306 680.576477,447.724060 
	C678.324646,449.248108 676.538879,450.504578 674.563599,451.275452 
	C666.824829,454.295502 659.028503,457.168488 651.249451,460.084991 
	C595.083252,481.142578 538.906616,502.172272 482.764435,523.293640 
	C477.371521,525.322510 472.191101,527.916321 466.678894,529.956909 
	C463.861420,522.051819 461.339417,514.415283 458.637848,506.842804 
	C458.123322,505.400574 456.899109,504.211548 455.998413,502.511566 
	C451.137451,487.372406 446.280273,472.627380 441.423157,457.882355 
	C437.934875,447.292755 434.446625,436.703156 431.143341,425.815674 
	C433.318787,424.366882 435.207428,422.962555 437.319336,422.113892 
	C443.025818,419.820709 448.831604,417.775299 454.590515,415.611572 
	C512.022217,394.033478 569.463928,372.481934 626.866211,350.826050 
	C633.045105,348.494995 638.992981,345.551544 645.047974,342.892181 
z"/>
<path fill="#34B5EC" opacity="1.000000" stroke="none" 
	d="
M645.023315,342.499634 
	C638.992981,345.551544 633.045105,348.494995 626.866211,350.826050 
	C569.463928,372.481934 512.022217,394.033478 454.590515,415.611572 
	C448.831604,417.775299 443.025818,419.820709 437.319336,422.113892 
	C435.207428,422.962555 433.318787,424.366882 430.809998,425.626312 
	C429.526245,423.273804 428.820007,420.792542 427.986359,418.354858 
	C419.033722,392.176086 410.061035,366.004181 401.085510,339.429138 
	C400.346741,335.695923 399.616302,332.363983 399.244629,329.080383 
	C402.003845,328.782593 404.560028,328.854462 406.780945,328.026703 
	C433.768341,317.968201 460.701019,307.763123 487.658630,297.624573 
	C518.668030,285.962250 549.665100,274.266449 580.715881,262.715302 
	C591.776123,258.600800 602.977966,254.867020 614.115173,250.959442 
	C621.407471,272.123352 628.745544,293.271637 635.970886,314.458374 
	C639.099976,323.633728 641.996460,332.888428 645.023315,342.499634 
z"/>
<path fill="#0B5AA5" opacity="1.000000" stroke="none" 
	d="
M273.028961,562.932251 
	C275.339111,565.055603 277.649231,567.178894 279.640137,569.636536 
	C276.914307,569.376282 274.451660,568.948181 272.110107,568.160278 
	C255.725372,562.647583 239.373184,557.038147 222.996429,551.501465 
	C182.054886,537.659851 141.105820,523.840454 100.159775,510.012085 
	C106.196815,491.812073 112.177391,473.593018 118.289276,455.418152 
	C122.945145,441.573120 127.780663,427.788574 132.507599,413.967346 
	C133.819031,410.132812 135.028214,406.263306 136.976624,402.212646 
	C138.955566,402.348236 140.270706,402.597534 141.524551,403.026184 
	C165.479385,411.215363 189.398590,419.509674 213.382492,427.612610 
	C253.627457,441.209473 293.928284,454.641052 334.165710,468.260040 
	C340.921753,470.546722 347.476807,473.427216 354.072327,476.422974 
	C353.895477,477.451416 353.829132,478.108185 353.637817,478.726318 
	C351.140991,486.792664 348.626465,494.853546 346.116394,502.915802 
	C314.653137,502.949554 283.189789,502.942719 251.726715,503.039032 
	C240.674210,503.072876 232.717407,510.634247 234.318512,520.804382 
	C235.082687,525.658447 238.068619,530.910217 241.596008,534.431335 
	C249.780319,542.601257 258.905884,549.828247 267.841187,558.078003 
	C268.851471,561.126892 269.174225,564.123657 273.028961,562.932251 
z"/>
<path fill="#2EA4E5" opacity="1.000000" stroke="none" 
	d="
M466.912048,530.247803 
	C472.191101,527.916321 477.371521,525.322510 482.764435,523.293640 
	C538.906616,502.172272 595.083252,481.142578 651.249451,460.084991 
	C659.028503,457.168488 666.824829,454.295502 674.563599,451.275452 
	C676.538879,450.504578 678.324646,449.248108 680.515259,448.105408 
	C686.200317,463.593018 691.580078,479.185669 696.930908,494.788300 
	C701.211975,507.271484 705.457764,519.766724 709.387817,532.633362 
	C707.598389,533.322266 706.074951,533.458618 704.692261,533.973206 
	C687.997742,540.185852 671.318420,546.439270 654.646179,552.711548 
	C619.276733,566.018188 583.907959,579.326660 548.550720,592.665649 
	C530.640930,599.422363 512.756836,606.247253 494.651764,612.756958 
	C490.884735,602.099365 487.256653,591.749512 483.785400,581.347351 
	C478.107239,564.332031 472.531158,547.282776 466.912048,530.247803 
z"/>
<path fill="#2C9DE3" opacity="1.000000" stroke="none" 
	d="
M494.861145,613.041260 
	C512.756836,606.247253 530.640930,599.422363 548.550720,592.665649 
	C583.907959,579.326660 619.276733,566.018188 654.646179,552.711548 
	C671.318420,546.439270 687.997742,540.185852 704.692261,533.973206 
	C706.074951,533.458618 707.598389,533.322266 709.444885,533.002808 
	C717.558533,556.053955 725.283752,579.112305 732.717651,602.715271 
	C702.357971,614.538330 672.284302,625.802124 642.223083,637.099365 
	C611.850952,648.513489 581.513855,660.021118 551.114258,671.361572 
	C540.218506,675.426208 529.185364,679.122559 518.087280,682.631592 
	C516.498718,678.229919 514.940979,674.215637 513.593506,670.131897 
	C507.317566,651.112183 501.099731,632.073303 494.861145,613.041260 
z"/>
<path fill="#37BCEE" opacity="1.000000" stroke="none" 
	d="
M614.062073,250.565338 
	C602.977966,254.867020 591.776123,258.600800 580.715881,262.715302 
	C549.665100,274.266449 518.668030,285.962250 487.658630,297.624573 
	C460.701019,307.763123 433.768341,317.968201 406.780945,328.026703 
	C404.560028,328.854462 402.003845,328.782593 399.014099,328.808411 
	C390.958374,306.294250 383.492004,284.100433 376.317444,261.700562 
	C378.819580,260.777466 381.061707,260.145081 383.235474,259.330383 
	C408.915192,249.705856 434.584076,240.052444 460.257019,230.409897 
	C493.709656,217.845367 527.147461,205.240997 560.626343,192.746826 
	C570.732605,188.975220 580.954224,185.512878 591.123047,181.908875 
	C597.746155,201.426163 604.380432,220.939667 610.981201,240.464539 
	C612.066345,243.674469 613.003479,246.934402 614.062073,250.565338 
z"/>
<path fill="#0960AE" opacity="1.000000" stroke="none" 
	d="
M99.995483,510.349670 
	C141.105820,523.840454 182.054886,537.659851 222.996429,551.501465 
	C239.373184,557.038147 255.725372,562.647583 272.110107,568.160278 
	C274.451660,568.948181 276.914307,569.376282 279.738525,569.964600 
	C284.150208,573.335571 288.230682,576.616577 292.118561,580.111816 
	C298.244171,585.618896 304.278778,591.229431 310.248840,596.904602 
	C311.123230,597.735779 311.429382,599.164734 312.007874,600.683228 
	C306.589630,617.574402 301.161926,634.099426 295.051941,650.761230 
	C272.311523,643.454956 250.256927,636.001465 228.194412,628.571472 
	C192.891037,616.682434 157.577850,604.822510 122.279541,592.918518 
	C114.718643,590.368591 107.268349,587.473267 99.649216,585.118469 
	C92.233597,582.826538 84.666763,581.023865 77.166321,579.006348 
	C82.584526,562.406006 87.973419,545.795898 93.436104,529.210144 
	C95.479256,523.006714 97.694435,516.859863 99.995483,510.349670 
z"/>
<path fill="#0C58A1" opacity="1.000000" stroke="none" 
	d="
M354.124725,476.033325 
	C347.476807,473.427216 340.921753,470.546722 334.165710,468.260040 
	C293.928284,454.641052 253.627457,441.209473 213.382492,427.612610 
	C189.398590,419.509674 165.479385,411.215363 141.524551,403.026184 
	C140.270706,402.597534 138.955566,402.348236 137.276733,401.985840 
	C141.421799,387.975647 145.909744,373.978729 150.516052,360.020844 
	C153.022858,352.424866 155.730652,344.895172 158.886688,337.375702 
	C161.201004,338.305359 162.902222,339.410309 164.763168,340.051880 
	C188.994629,348.405945 213.221634,356.774536 237.503281,364.981110 
	C277.718719,378.572906 317.962769,392.080383 358.222992,405.538910 
	C363.712067,407.373871 368.018921,410.243317 370.461884,415.713501 
	C371.057892,417.048065 372.690857,417.919556 373.770874,419.364624 
	C367.171387,438.494659 360.648071,457.263977 354.124725,476.033325 
z"/>
<path fill="#2A98E1" opacity="1.000000" stroke="none" 
	d="
M518.214966,682.987000 
	C529.185364,679.122559 540.218506,675.426208 551.114258,671.361572 
	C581.513855,660.021118 611.850952,648.513489 642.223083,637.099365 
	C672.284302,625.802124 702.357971,614.538330 732.762085,603.109741 
	C739.045166,620.273804 744.986389,637.590027 750.948120,654.899231 
	C751.569336,656.702942 752.311951,658.464844 752.561401,660.697388 
	C734.981689,667.523804 717.821960,673.853882 700.699097,680.282410 
	C645.905518,700.853577 591.118652,721.443054 536.367798,742.127686 
	C534.370850,742.882080 532.778748,744.708008 530.997925,746.034546 
	C520.880981,745.860107 510.763977,745.685730 500.693390,745.238770 
	C506.906555,743.295837 512.247559,740.331909 516.426636,734.929443 
	C519.249329,729.909424 521.802429,725.085266 524.538086,719.918518 
	C524.896484,714.993530 525.971558,710.220764 525.050720,705.870483 
	C523.407654,698.108154 520.559326,690.600891 518.214966,682.987000 
z"/>
<path fill="#3CCAF4" opacity="1.000000" stroke="none" 
	d="
M291.030304,55.267021 
	C306.839020,55.231644 322.647675,55.179714 338.456421,55.163818 
	C399.036835,55.102901 459.617523,55.130966 520.197449,54.932999 
	C531.966431,54.894539 541.934387,58.328144 549.927368,67.928589 
	C550.751709,69.376884 551.432861,70.166931 552.114075,70.956985 
	C552.744629,71.745529 553.375122,72.534073 553.704468,73.716553 
	C551.630432,75.009346 549.924194,76.085693 548.074707,76.780602 
	C518.358215,87.945969 488.618835,99.050385 458.894043,110.193748 
	C423.877625,123.320877 388.871796,136.476181 353.857178,149.608078 
	C349.107819,151.389267 344.334106,153.105484 339.369385,154.500824 
	C338.278015,151.143280 337.491638,148.101807 336.483398,145.135727 
	C329.240997,123.829910 321.868225,102.568016 314.713715,81.232872 
	C310.681763,69.209480 303.421783,60.590939 290.890686,56.800667 
	C290.958405,56.084957 290.994354,55.675987 291.030304,55.267021 
z"/>
<path fill="#38C1F0" opacity="1.000000" stroke="none" 
	d="
M591.068115,181.524658 
	C580.954224,185.512878 570.732605,188.975220 560.626343,192.746826 
	C527.147461,205.240997 493.709656,217.845367 460.257019,230.409897 
	C434.584076,240.052444 408.915192,249.705856 383.235474,259.330383 
	C381.061707,260.145081 378.819580,260.777466 376.083008,261.440735 
	C369.099701,242.256149 362.642670,223.125381 356.541016,203.919037 
	C365.631775,200.607132 374.377197,197.397827 383.100800,194.130173 
	C439.495026,173.006241 495.893036,151.892197 552.263733,130.705612 
	C558.608826,128.320877 564.791016,125.502747 571.048706,122.885605 
	C576.699646,139.435608 582.347534,155.986664 588.004578,172.534561 
	C588.987549,175.410004 590.009338,178.272156 591.068115,181.524658 
z"/>
<path fill="#0D559C" opacity="1.000000" stroke="none" 
	d="
M373.847046,419.003967 
	C372.690857,417.919556 371.057892,417.048065 370.461884,415.713501 
	C368.018921,410.243317 363.712067,407.373871 358.222992,405.538910 
	C317.962769,392.080383 277.718719,378.572906 237.503281,364.981110 
	C213.221634,356.774536 188.994629,348.405945 164.763168,340.051880 
	C162.902222,339.410309 161.201004,338.305359 159.185974,337.156677 
	C163.491333,322.881958 168.034317,308.865723 172.582245,294.851074 
	C174.148178,290.025635 175.726501,285.204224 177.943390,280.315887 
	C182.390839,281.448059 186.219986,282.569244 189.993164,283.854675 
	C216.434784,292.862885 242.856247,301.930298 269.301270,310.928497 
	C291.656036,318.534973 314.071625,325.965790 336.357788,333.767212 
	C339.447174,334.848663 342.827728,337.043793 344.549255,339.708191 
	C349.010437,346.612732 352.924164,353.920441 356.505493,361.333374 
	C363.195221,375.180237 369.477448,389.223755 376.002533,403.151093 
	C376.370453,403.936432 377.400238,404.411713 378.068237,405.418884 
	C376.625366,410.205658 375.236206,414.604797 373.847046,419.003967 
z"/>
<path fill="#3AC6F2" opacity="1.000000" stroke="none" 
	d="
M571.025635,122.491455 
	C564.791016,125.502747 558.608826,128.320877 552.263733,130.705612 
	C495.893036,151.892197 439.495026,173.006241 383.100800,194.130173 
	C374.377197,197.397827 365.631775,200.607132 356.451294,203.546555 
	C350.527954,187.117035 345.049805,170.984406 339.571655,154.851776 
	C344.334106,153.105484 349.107819,151.389267 353.857178,149.608078 
	C388.871796,136.476181 423.877625,123.320877 458.894043,110.193748 
	C488.618835,99.050385 518.358215,87.945969 548.074707,76.780602 
	C549.924194,76.085693 551.630432,75.009346 553.760681,74.035736 
	C555.587585,77.652794 557.209717,81.292198 558.498657,85.045982 
	C562.731689,97.374084 566.843933,109.743675 571.025635,122.491455 
z"/>
<path fill="#0767B8" opacity="1.000000" stroke="none" 
	d="
M264.106323,735.029907 
	C257.437561,742.942139 248.721893,746.902893 238.581726,746.929626 
	C182.476746,747.077576 126.370934,746.911621 70.265923,747.054871 
	C46.924526,747.114441 28.558321,727.093811 35.189274,702.446655 
	C38.753029,689.200195 43.864922,676.370178 48.990799,663.169495 
	C51.640133,663.434570 53.632782,663.718201 55.505356,664.354980 
	C82.614220,673.573364 109.687302,682.897339 136.808075,692.080383 
	C179.225250,706.442871 221.672073,720.717834 264.106323,735.029907 
z"/>
<path fill="#0863B3" opacity="1.000000" stroke="none" 
	d="
M76.994934,579.336975 
	C84.666763,581.023865 92.233597,582.826538 99.649216,585.118469 
	C107.268349,587.473267 114.718643,590.368591 122.279541,592.918518 
	C157.577850,604.822510 192.891037,616.682434 228.194412,628.571472 
	C250.256927,636.001465 272.311523,643.454956 294.747375,650.971069 
	C290.322266,665.560303 285.535400,680.081848 280.661011,694.573914 
	C280.455353,695.185303 279.436279,695.523071 278.142639,695.807251 
	C252.714828,687.270264 227.934875,678.931030 203.167465,670.554565 
	C160.880035,656.252747 118.612152,641.892883 76.301186,627.661133 
	C71.609573,626.083069 66.691078,625.179504 61.877808,623.963135 
	C66.239738,610.690002 70.590324,597.413208 74.979057,584.148926 
	C75.485191,582.619202 76.203575,581.159668 76.994934,579.336975 
z"/>
<path fill="#2893DF" opacity="1.000000" stroke="none" 
	d="
M531.466858,746.044434 
	C532.778748,744.708008 534.370850,742.882080 536.367798,742.127686 
	C591.118652,721.443054 645.905518,700.853577 700.699097,680.282410 
	C717.821960,673.853882 734.981689,667.523804 752.478882,661.073608 
	C757.876404,676.165161 764.602173,691.011719 767.562195,706.574585 
	C771.826355,728.993958 754.657715,746.849976 733.174744,746.934937 
	C688.406067,747.112061 643.635986,746.932373 598.392212,746.838196 
	C595.972839,746.534119 594.028198,746.084900 592.082581,746.080078 
	C572.033752,746.030212 551.984741,746.052246 531.466858,746.044434 
z"/>
<path fill="#0F5094" opacity="1.000000" stroke="none" 
	d="
M196.166992,225.005310 
	C204.215515,201.141693 212.264038,177.278061 220.933167,153.094238 
	C223.815948,151.750122 223.311600,147.127548 227.756943,148.687592 
	C245.498322,154.913788 263.370789,160.766739 281.105774,167.010559 
	C283.032135,167.688751 284.877106,169.729980 285.914337,171.606369 
	C290.461395,179.831924 294.589996,188.287674 299.073853,196.549530 
	C304.341827,206.256180 309.826904,215.844910 315.193970,225.498062 
	C315.593842,226.217331 315.749420,227.068390 316.107391,227.815643 
	C320.898224,237.815948 325.721313,247.800812 330.494232,257.809662 
	C331.490479,259.898773 332.271515,262.089478 333.227478,264.199036 
	C337.327789,273.247253 341.256226,282.381012 345.635376,291.292877 
	C349.410034,298.974548 354.105408,306.215271 357.692688,313.975037 
	C364.579712,328.872375 370.873291,344.042877 377.611420,359.010773 
	C380.515289,365.461365 383.912720,371.689758 387.045776,378.409210 
	C385.371979,383.541412 383.738342,388.283478 381.805084,392.839996 
	C378.244537,386.554382 374.685516,380.592316 371.785675,374.325195 
	C366.013397,361.850067 360.701752,349.162537 355.012604,336.647888 
	C350.563446,326.860870 345.939270,317.149445 341.196136,307.501099 
	C336.241547,297.422577 331.137085,287.415070 325.933899,277.462372 
	C322.592102,271.070221 318.723694,265.147583 311.284302,262.651794 
	C274.541840,250.325333 237.828262,237.912827 201.083618,225.593018 
	C199.551315,225.079254 197.810608,225.187073 196.166992,225.005310 
z"/>
<path fill="#0E5298" opacity="1.000000" stroke="none" 
	d="
M196.086487,225.380798 
	C197.810608,225.187073 199.551315,225.079254 201.083618,225.593018 
	C237.828262,237.912827 274.541840,250.325333 311.284302,262.651794 
	C318.723694,265.147583 322.592102,271.070221 325.933899,277.462372 
	C331.137085,287.415070 336.241547,297.422577 341.196136,307.501099 
	C345.939270,317.149445 350.563446,326.860870 355.012604,336.647888 
	C360.701752,349.162537 366.013397,361.850067 371.785675,374.325195 
	C374.685516,380.592316 378.244537,386.554382 381.740662,393.218628 
	C380.691223,397.532318 379.406616,401.281799 378.121979,405.031281 
	C377.400238,404.411713 376.370453,403.936432 376.002533,403.151093 
	C369.477448,389.223755 363.195221,375.180237 356.505493,361.333374 
	C352.924164,353.920441 349.010437,346.612732 344.549255,339.708191 
	C342.827728,337.043793 339.447174,334.848663 336.357788,333.767212 
	C314.071625,325.965790 291.656036,318.534973 269.301270,310.928497 
	C242.856247,301.930298 216.434784,292.862885 189.993164,283.854675 
	C186.219986,282.569244 182.390839,281.448059 178.238708,280.094299 
	C183.062057,264.354431 188.229080,248.769287 193.411957,233.189423 
	C194.240234,230.699600 195.139526,228.233398 196.086487,225.380798 
z"/>
<path fill="#0765B5" opacity="1.000000" stroke="none" 
	d="
M61.574867,624.174255 
	C66.691078,625.179504 71.609573,626.083069 76.301186,627.661133 
	C118.612152,641.892883 160.880035,656.252747 203.167465,670.554565 
	C227.934875,678.931030 252.714828,687.270264 277.772156,695.863403 
	C276.064392,704.036987 274.482666,712.107605 271.939240,719.862793 
	C270.238617,725.048218 267.170837,729.785339 264.410583,734.876465 
	C221.672073,720.717834 179.225250,706.442871 136.808075,692.080383 
	C109.687302,682.897339 82.614220,673.573364 55.505356,664.354980 
	C53.632782,663.718201 51.640133,663.434570 49.294716,662.972107 
	C52.817142,650.894104 56.751259,638.831665 60.672131,626.764954 
	C60.924335,625.988770 61.074360,625.179321 61.574867,624.174255 
z"/>
<path fill="#104C8E" opacity="1.000000" stroke="none" 
	d="
M387.085938,378.019104 
	C383.912720,371.689758 380.515289,365.461365 377.611420,359.010773 
	C370.873291,344.042877 364.579712,328.872375 357.692688,313.975037 
	C354.105408,306.215271 349.410034,298.974548 345.635376,291.292877 
	C341.256226,282.381012 337.327789,273.247253 333.227478,264.199036 
	C332.271515,262.089478 331.490479,259.898773 330.494232,257.809662 
	C325.721313,247.800812 320.898224,237.815948 316.107391,227.815643 
	C315.749420,227.068390 315.593842,226.217331 315.193970,225.498062 
	C309.826904,215.844910 304.341827,206.256180 299.073853,196.549530 
	C294.589996,188.287674 290.461395,179.831924 285.914337,171.606369 
	C284.877106,169.729980 283.032135,167.688751 281.105774,167.010559 
	C263.370789,160.766739 245.498322,154.913788 227.756943,148.687592 
	C223.311600,147.127548 223.815948,151.750122 221.218948,152.865891 
	C226.227707,136.730545 231.553833,120.497589 236.922211,104.278610 
	C239.608963,96.161324 242.076416,87.952316 245.216934,80.011772 
	C246.996429,75.512505 249.937164,71.472534 252.807220,67.399681 
	C256.246338,73.654549 259.154877,79.775482 262.240967,85.805542 
	C265.631805,92.431046 269.353333,98.890907 272.628845,105.570976 
	C277.194427,114.882034 281.503845,124.319305 285.878601,133.723175 
	C290.921631,144.563644 295.884827,155.441360 300.961761,166.265823 
	C301.863678,168.188751 303.166321,169.921890 304.258148,171.757980 
	C306.179260,174.988617 308.211487,178.162842 309.945587,181.491760 
	C311.167908,183.838272 311.835297,186.468597 312.988739,188.857147 
	C320.121918,203.628601 327.532867,218.269623 334.450439,233.140564 
	C344.254272,254.216339 353.759735,275.431641 363.300690,296.628754 
	C370.989746,313.711487 378.490387,330.879089 386.191010,347.956543 
	C388.197632,352.406464 390.639069,356.660309 392.882874,361.382629 
	C390.951965,367.180389 389.018951,372.599731 387.085938,378.019104 
z"/>
<path fill="#0F4987" opacity="1.000000" stroke="none" 
	d="
M392.880768,361.004211 
	C390.639069,356.660309 388.197632,352.406464 386.191010,347.956543 
	C378.490387,330.879089 370.989746,313.711487 363.300690,296.628754 
	C353.759735,275.431641 344.254272,254.216339 334.450439,233.140564 
	C327.532867,218.269623 320.121918,203.628601 312.988739,188.857147 
	C311.835297,186.468597 311.167908,183.838272 309.945587,181.491760 
	C308.211487,178.162842 306.179260,174.988617 304.258148,171.757980 
	C303.166321,169.921890 301.863678,168.188751 300.961761,166.265823 
	C295.884827,155.441360 290.921631,144.563644 285.878601,133.723175 
	C281.503845,124.319305 277.194427,114.882034 272.628845,105.570976 
	C269.353333,98.890907 265.631805,92.431046 262.240967,85.805542 
	C259.154877,79.775482 256.246338,73.654549 253.107025,67.232452 
	C260.950714,56.621655 272.104309,54.641903 284.638855,55.273949 
	C285.125916,55.538918 285.158997,55.900238 284.775391,55.968109 
	C283.740997,57.600334 282.146149,59.520748 282.581635,60.675396 
	C288.681946,76.849403 294.908234,92.980415 301.426666,108.990471 
	C305.243011,118.363876 309.858002,127.411095 313.710999,136.770828 
	C319.345673,150.458603 324.624176,164.293106 330.044617,178.068954 
	C338.389679,199.277603 346.802887,220.459885 355.039215,241.710693 
	C360.386719,255.507980 365.413422,269.429230 370.688324,283.255096 
	C376.975342,299.733765 383.265320,316.213135 389.787018,332.599457 
	C391.899658,337.907715 394.746735,342.923676 397.182617,348.453674 
	C395.698456,352.890778 394.289612,356.947479 392.880768,361.004211 
z"/>
<path fill="#2893DF" opacity="1.000000" stroke="none" 
	d="
M285.158997,55.900238 
	C285.158997,55.900238 285.125916,55.538918 285.097717,55.359673 
	C286.780151,55.142143 288.490814,55.103863 290.615906,55.166302 
	C290.994354,55.675987 290.958405,56.084957 290.522888,56.755928 
	C288.468536,56.645367 286.813782,56.272800 285.158997,55.900238 
z"/>
<path fill="#3AC6F2" opacity="1.000000" stroke="none" 
	d="
M552.062378,70.628922 
	C551.432861,70.166931 550.751709,69.376884 550.056885,68.236633 
	C550.699097,68.691246 551.354858,69.496056 552.062378,70.628922 
z"/>
<path fill="#000000" opacity="1.000000" stroke="none" 
	d="
M392.882874,361.382629 
	C394.289612,356.947479 395.698456,352.890778 397.406372,348.185547 
	C398.834869,344.968170 399.964325,342.399292 401.093811,339.830383 
	C410.061035,366.004181 419.033722,392.176086 427.986359,418.354858 
	C428.820007,420.792542 429.526245,423.273804 430.625000,425.924194 
	C434.446625,436.703156 437.934875,447.292755 441.423157,457.882355 
	C446.280273,472.627380 451.137451,487.372406 455.569672,502.558594 
	C453.427490,503.059265 451.710236,503.118774 449.533386,503.116455 
	C445.045868,503.091705 441.017883,503.128784 436.525269,503.106567 
	C428.369690,503.086945 420.678741,503.126617 412.987823,503.166260 
	C391.004303,503.105469 369.020752,503.044678 346.576813,502.949829 
	C348.626465,494.853546 351.140991,486.792664 353.637817,478.726318 
	C353.829132,478.108185 353.895477,477.451416 354.072327,476.422974 
	C360.648071,457.263977 367.171387,438.494659 373.770874,419.364624 
	C375.236206,414.604797 376.625366,410.205658 378.068237,405.418884 
	C379.406616,401.281799 380.691223,397.532318 382.040283,393.404205 
	C383.738342,388.283478 385.371979,383.541412 387.045776,378.409210 
	C389.018951,372.599731 390.951965,367.180389 392.882874,361.382629 
z"/>
<path fill="#0071C7" opacity="1.000000" stroke="none" 
	d="
M412.992004,503.569153 
	C420.678741,503.126617 428.369690,503.086945 436.603821,503.463562 
	C453.595276,552.576538 470.045776,601.272461 486.490906,649.970154 
	C495.485321,676.604675 504.454254,703.247803 513.495850,729.866211 
	C514.121460,731.708069 515.258057,733.376282 516.157043,735.125244 
	C512.247559,740.331909 506.906555,743.295837 500.363525,744.982422 
	C496.065796,746.724854 493.947144,745.334595 492.637146,741.336426 
	C489.583099,732.015564 486.155670,722.817871 483.022797,713.522034 
	C469.476898,673.328674 456.029938,633.101990 442.452942,592.919189 
	C433.243530,565.662903 423.858398,538.466064 414.616760,511.220581 
	C413.826019,508.889374 413.524811,506.392120 412.992004,503.569153 
z"/>
<path fill="#0960AE" opacity="1.000000" stroke="none" 
	d="
M272.861694,562.658569 
	C269.174225,564.123657 268.851471,561.126892 268.014374,558.362793 
	C269.562317,559.466370 271.128387,560.925659 272.861694,562.658569 
z"/>
<path fill="#0960AE" opacity="1.000000" stroke="none" 
	d="
M449.992920,503.178253 
	C451.710236,503.118774 453.427490,503.059265 455.573547,502.952728 
	C456.899109,504.211548 458.123322,505.400574 458.637848,506.842804 
	C461.339417,514.415283 463.861420,522.051819 466.678925,529.956909 
	C472.531158,547.282776 478.107239,564.332031 483.785400,581.347351 
	C487.256653,591.749512 490.884735,602.099365 494.651794,612.756958 
	C501.099731,632.073303 507.317566,651.112183 513.593506,670.131897 
	C514.940979,674.215637 516.498718,678.229919 518.087280,682.631592 
	C520.559326,690.600891 523.407654,698.108154 525.050720,705.870483 
	C525.971558,710.220764 524.896484,714.993530 524.210205,719.701660 
	C522.664856,717.976013 521.328979,716.229370 520.643066,714.256653 
	C515.505981,699.481873 510.453186,684.677246 505.456787,669.854065 
	C492.751129,632.159485 480.101624,594.446045 467.398529,556.750549 
	C464.688843,548.709839 461.713287,540.756836 459.100952,532.685547 
	C455.931488,522.892944 453.017487,513.017700 449.992920,503.178253 
z"/>
<path fill="#0D4076" opacity="1.000000" stroke="none" 
	d="
M401.085510,339.429138 
	C399.964325,342.399292 398.834869,344.968170 397.481628,347.805206 
	C394.746735,342.923676 391.899658,337.907715 389.787018,332.599457 
	C383.265320,316.213135 376.975342,299.733765 370.688324,283.255096 
	C365.413422,269.429230 360.386719,255.507980 355.039215,241.710693 
	C346.802887,220.459885 338.389679,199.277603 330.044617,178.068954 
	C324.624176,164.293106 319.345673,150.458603 313.710999,136.770828 
	C309.858002,127.411095 305.243011,118.363876 301.426666,108.990471 
	C294.908234,92.980415 288.681946,76.849403 282.581635,60.675396 
	C282.146149,59.520748 283.740997,57.600334 284.775391,55.968109 
	C286.813782,56.272800 288.468536,56.645367 290.491119,57.062668 
	C303.421783,60.590939 310.681763,69.209480 314.713715,81.232872 
	C321.868225,102.568016 329.240997,123.829910 336.483398,145.135727 
	C337.491638,148.101807 338.278015,151.143280 339.369385,154.500824 
	C345.049805,170.984406 350.527954,187.117035 356.095856,203.622147 
	C362.642670,223.125381 369.099701,242.256149 375.791199,261.646729 
	C383.492004,284.100433 390.958374,306.294250 398.655304,328.760071 
	C399.616302,332.363983 400.346741,335.695923 401.085510,339.429138 
z"/>
<path fill="#0767B8" opacity="1.000000" stroke="none" 
	d="
M449.533386,503.116455 
	C453.017487,513.017700 455.931488,522.892944 459.100952,532.685547 
	C461.713287,540.756836 464.688843,548.709839 467.398529,556.750549 
	C480.101624,594.446045 492.751129,632.159485 505.456787,669.854065 
	C510.453186,684.677246 515.505981,699.481873 520.643066,714.256653 
	C521.328979,716.229370 522.664856,717.976013 524.027588,720.044250 
	C521.802429,725.085266 519.249329,729.909424 516.426636,734.929443 
	C515.258057,733.376282 514.121460,731.708069 513.495850,729.866211 
	C504.454254,703.247803 495.485321,676.604675 486.490906,649.970154 
	C470.045776,601.272461 453.595276,552.576538 437.068481,503.522827 
	C441.017883,503.128784 445.045868,503.091705 449.533386,503.116455 
z"/>
</svg>