<svg version="1.1" id="Layer_1" xmlns="http://www.w3.org/2000/svg" xmlns:xlink="http://www.w3.org/1999/xlink" x="0px" y="0px"
	 width="100%" viewBox="0 0 238 100" enable-background="new 0 0 238 100" xml:space="preserve">
<path fill="#010101" opacity="1.000000" stroke="none" 
	d="
M158.000000,101.000000 
	C105.333351,101.000000 53.166698,101.000000 1.000035,101.000000 
	C1.000023,67.666695 1.000023,34.333385 1.000012,1.000057 
	C80.333282,1.000038 159.666565,1.000038 238.999878,1.000019 
	C238.999924,34.333275 238.999924,67.666550 238.999969,100.999908 
	C212.166672,101.000000 185.333328,101.000000 158.000000,101.000000 
M19.394104,58.797295 
	C17.614794,64.070976 15.835484,69.344650 13.976262,74.855179 
	C18.159077,74.855179 21.794697,74.855179 25.613878,74.855179 
	C27.044573,70.554611 28.447613,66.337173 29.822001,62.205860 
	C36.764668,62.205860 43.374718,62.205860 50.158264,62.205860 
	C51.592026,66.523018 52.987190,70.723969 54.304867,74.691589 
	C58.464123,74.691589 62.171509,74.691589 66.290375,74.691589 
	C59.920471,56.248718 53.695347,38.225029 47.396530,19.987982 
	C43.724346,19.987982 40.232452,20.175411 36.771114,19.930641 
	C33.826569,19.722418 32.433975,20.639772 31.474855,23.602644 
	C27.736317,35.151600 23.658419,46.590706 19.394104,58.797295 
M195.928604,72.717041 
	C208.261734,79.457527 221.251678,76.662651 225.842896,66.280769 
	C220.382767,62.056515 220.638412,62.612309 214.585876,65.396217 
	C211.535202,66.799400 206.939178,66.789421 203.832245,65.505714 
	C201.361420,64.484840 200.090622,60.559555 198.287079,57.923710 
	C198.681610,57.536121 199.076157,57.148529 199.470703,56.760941 
	C208.376053,56.760941 217.281403,56.760941 226.105194,56.760941 
	C227.780960,46.508434 225.099915,38.813828 218.806030,35.215538 
	C211.817657,31.220205 200.511017,32.428051 194.386200,37.509407 
	C184.980408,45.312778 185.750107,66.308105 195.928604,72.717041 
M142.443176,33.988476 
	C140.030243,33.988476 137.617310,33.988476 134.982025,33.988476 
	C134.982025,42.535904 135.255051,50.357948 134.894363,58.150661 
	C134.613266,64.223633 130.958664,67.355606 125.686211,67.011475 
	C121.244789,66.721581 119.922699,64.635254 119.916862,57.862362 
	C119.910049,49.948395 119.915268,42.034420 119.915268,34.338711 
	C115.812241,34.338711 112.396400,34.338711 108.996315,34.338711 
	C108.996315,44.332798 108.836372,53.980267 109.057800,63.618980 
	C109.185501,69.177795 111.499413,73.862282 117.304848,75.364799 
	C123.108200,76.866791 128.883163,76.824844 133.417236,71.826279 
	C133.821533,71.380577 134.363678,71.059914 134.961548,70.586319 
	C135.355591,72.236229 135.679947,73.594337 135.929245,74.638184 
	C139.572327,74.638184 142.814926,74.638184 146.138077,74.638184 
	C146.138077,61.951496 146.113785,49.637920 146.162415,37.324631 
	C146.170349,35.313778 146.187134,33.561176 142.443176,33.988476 
M74.576523,33.991226 
	C72.992569,33.991226 71.408615,33.991226 69.923004,33.991226 
	C69.923004,37.313644 69.923004,39.930370 69.923004,43.158676 
	C76.123177,43.158676 82.135017,43.158676 89.016777,43.158676 
	C83.219147,49.636425 78.418877,55.625214 72.943832,60.915680 
	C68.701523,65.014961 67.964752,69.436234 69.121719,74.768112 
	C80.034004,74.768112 90.791557,74.768112 101.640381,74.768112 
	C101.640381,71.796867 101.640381,69.072647 101.640381,65.924698 
	C94.995316,65.924698 88.608185,65.924698 81.300392,65.924698 
	C87.221695,59.328465 92.218834,53.130432 97.900444,47.640820 
	C102.120293,43.563576 102.138214,39.174278 101.267517,33.991226 
	C92.542900,33.991226 84.053917,33.991226 74.576523,33.991226 
M157.420319,54.499828 
	C157.420319,61.266407 157.420319,68.032990 157.420319,74.723358 
	C161.439133,74.723358 164.851196,74.723358 168.844757,74.723358 
	C168.844757,67.128998 168.497772,59.814816 168.945984,52.549694 
	C169.363068,45.789177 173.836411,43.092964 180.350586,44.874561 
	C180.946045,45.037415 181.609665,44.950974 182.566406,44.995369 
	C183.123840,41.475918 183.653885,38.129440 184.211472,34.609093 
	C178.089737,33.248951 172.950317,33.494831 168.918411,38.957294 
	C168.425827,36.738052 168.125229,35.383755 167.881989,34.287933 
	C164.209015,34.287933 160.962585,34.287933 157.420380,34.287933 
	C157.420380,40.900772 157.420380,47.200500 157.420319,54.499828 
z"/>
<path fill="#F8F8F8" opacity="1.000000" stroke="none" 
	d="
M19.550419,58.433983 
	C23.658419,46.590706 27.736317,35.151600 31.474855,23.602644 
	C32.433975,20.639772 33.826569,19.722418 36.771114,19.930641 
	C40.232452,20.175411 43.724346,19.987982 47.396530,19.987982 
	C53.695347,38.225029 59.920471,56.248718 66.290375,74.691589 
	C62.171509,74.691589 58.464123,74.691589 54.304867,74.691589 
	C52.987190,70.723969 51.592026,66.523018 50.158264,62.205860 
	C43.374718,62.205860 36.764668,62.205860 29.822001,62.205860 
	C28.447613,66.337173 27.044573,70.554611 25.613878,74.855179 
	C21.794697,74.855179 18.159077,74.855179 13.976262,74.855179 
	C15.835484,69.344650 17.614794,64.070976 19.550419,58.433983 
M44.925308,53.029575 
	C45.533733,52.690994 46.711689,52.180984 46.668785,52.038452 
	C44.649296,45.329140 42.523815,38.651737 40.410435,31.970688 
	C40.063625,32.054298 39.716812,32.137913 39.369999,32.221523 
	C37.230656,38.987522 35.091309,45.753521 32.789845,53.032253 
	C36.836922,53.032253 40.441021,53.032253 44.925308,53.029575 
z"/>
<path fill="#F8F8F8" opacity="1.000000" stroke="none" 
	d="
M195.636368,72.491539 
	C185.750107,66.308105 184.980408,45.312778 194.386200,37.509407 
	C200.511017,32.428051 211.817657,31.220205 218.806030,35.215538 
	C225.099915,38.813828 227.780960,46.508434 226.105194,56.760941 
	C217.281403,56.760941 208.376053,56.760941 199.470703,56.760941 
	C199.076157,57.148529 198.681610,57.536121 198.287079,57.923710 
	C200.090622,60.559555 201.361420,64.484840 203.832245,65.505714 
	C206.939178,66.789421 211.535202,66.799400 214.585876,65.396217 
	C220.638412,62.612309 220.382767,62.056515 225.842896,66.280769 
	C221.251678,76.662651 208.261734,79.457527 195.636368,72.491539 
M203.879166,50.001419 
	C207.848526,50.001419 211.817886,50.001419 215.803101,50.001419 
	C215.396469,43.769787 213.289963,41.244728 208.519455,41.011799 
	C203.727188,40.777813 200.578400,43.824474 199.597916,49.815327 
	C200.741180,49.877975 201.867477,49.939693 203.879166,50.001419 
z"/>
<path fill="#F8F8F8" opacity="1.000000" stroke="none" 
	d="
M142.921143,33.988743 
	C146.187134,33.561176 146.170349,35.313778 146.162415,37.324631 
	C146.113785,49.637920 146.138077,61.951496 146.138077,74.638184 
	C142.814926,74.638184 139.572327,74.638184 135.929245,74.638184 
	C135.679947,73.594337 135.355591,72.236229 134.961548,70.586319 
	C134.363678,71.059914 133.821533,71.380577 133.417236,71.826279 
	C128.883163,76.824844 123.108200,76.866791 117.304848,75.364799 
	C111.499413,73.862282 109.185501,69.177795 109.057800,63.618980 
	C108.836372,53.980267 108.996315,44.332798 108.996315,34.338711 
	C112.396400,34.338711 115.812241,34.338711 119.915268,34.338711 
	C119.915268,42.034420 119.910049,49.948395 119.916862,57.862362 
	C119.922699,64.635254 121.244789,66.721581 125.686211,67.011475 
	C130.958664,67.355606 134.613266,64.223633 134.894363,58.150661 
	C135.255051,50.357948 134.982025,42.535904 134.982025,33.988476 
	C137.617310,33.988476 140.030243,33.988476 142.921143,33.988743 
z"/>
<path fill="#F9F9F9" opacity="1.000000" stroke="none" 
	d="
M75.070732,33.991226 
	C84.053917,33.991226 92.542900,33.991226 101.267517,33.991226 
	C102.138214,39.174278 102.120293,43.563576 97.900444,47.640820 
	C92.218834,53.130432 87.221695,59.328465 81.300392,65.924698 
	C88.608185,65.924698 94.995316,65.924698 101.640381,65.924698 
	C101.640381,69.072647 101.640381,71.796867 101.640381,74.768112 
	C90.791557,74.768112 80.034004,74.768112 69.121719,74.768112 
	C67.964752,69.436234 68.701523,65.014961 72.943832,60.915680 
	C78.418877,55.625214 83.219147,49.636425 89.016777,43.158676 
	C82.135017,43.158676 76.123177,43.158676 69.923004,43.158676 
	C69.923004,39.930370 69.923004,37.313644 69.923004,33.991226 
	C71.408615,33.991226 72.992569,33.991226 75.070732,33.991226 
z"/>
<path fill="#EFEFEF" opacity="1.000000" stroke="none" 
	d="
M157.420349,54.000031 
	C157.420380,47.200500 157.420380,40.900772 157.420380,34.287933 
	C160.962585,34.287933 164.209015,34.287933 167.881989,34.287933 
	C168.125229,35.383755 168.425827,36.738052 168.918411,38.957294 
	C172.950317,33.494831 178.089737,33.248951 184.211472,34.609093 
	C183.653885,38.129440 183.123840,41.475918 182.566406,44.995369 
	C181.609665,44.950974 180.946045,45.037415 180.350586,44.874561 
	C173.836411,43.092964 169.363068,45.789177 168.945984,52.549694 
	C168.497772,59.814816 168.844757,67.128998 168.844757,74.723358 
	C164.851196,74.723358 161.439133,74.723358 157.420319,74.723358 
	C157.420319,68.032990 157.420319,61.266407 157.420349,54.000031 
z"/>
<path fill="#0A0A0A" opacity="1.000000" stroke="none" 
	d="
M44.485214,53.030914 
	C40.441021,53.032253 36.836922,53.032253 32.789845,53.032253 
	C35.091309,45.753521 37.230656,38.987522 39.369999,32.221523 
	C39.716812,32.137913 40.063625,32.054298 40.410435,31.970688 
	C42.523815,38.651737 44.649296,45.329140 46.668785,52.038452 
	C46.711689,52.180984 45.533733,52.690994 44.485214,53.030914 
z"/>
<path fill="#080808" opacity="1.000000" stroke="none" 
	d="
M203.436462,50.001419 
	C201.867477,49.939693 200.741180,49.877975 199.597916,49.815327 
	C200.578400,43.824474 203.727188,40.777813 208.519455,41.011799 
	C213.289963,41.244728 215.396469,43.769787 215.803101,50.001419 
	C211.817886,50.001419 207.848526,50.001419 203.436462,50.001419 
z"/>
</svg>