<svg version="1.1" id="Layer_1" xmlns="http://www.w3.org/2000/svg" xmlns:xlink="http://www.w3.org/1999/xlink" x="0px" y="0px"
	 width="100%" viewBox="0 0 495 504" enable-background="new 0 0 495 504" xml:space="preserve">
<path fill="#FEFEFE" opacity="1.000000" stroke="none" 
	d="
M496.000000,394.000000 
	C496.000000,430.931305 496.000000,467.862579 496.000000,505.000000 
	C454.645996,505.000000 413.291656,505.000000 371.580078,504.628326 
	C377.921509,501.847748 384.999573,500.156372 391.229736,496.861633 
	C400.544739,491.935547 407.022858,484.153412 409.192871,473.453156 
	C411.755524,460.817047 405.481384,448.256287 393.392914,441.783264 
	C384.306366,436.917633 374.461517,435.932556 364.330444,435.854858 
	C357.039764,435.798950 349.726685,435.171082 342.481049,434.312958 
	C339.198456,433.924194 336.863770,431.970703 338.516083,429.368195 
	C347.209900,430.114410 355.208618,432.147705 362.846313,431.217255 
	C391.822235,427.687164 408.206757,396.063385 395.606873,369.019989 
	C394.248535,366.104553 392.968384,363.131042 397.597351,363.095642 
	C402.420563,363.058807 403.077576,360.812164 402.740509,356.923431 
	C402.511139,354.276947 402.576477,351.589447 402.714355,348.930908 
	C402.850311,346.310577 401.636139,344.917358 399.199921,345.495575 
	C394.420837,346.629852 389.295898,347.390198 385.152130,349.766632 
	C381.975311,351.588531 380.160522,351.433990 377.290405,349.836151 
	C362.159607,341.412506 344.359863,343.181641 331.024536,354.205719 
	C313.752441,368.484283 310.215424,393.877655 322.697052,412.985199 
	C323.709351,414.534912 324.729034,417.209961 324.073730,418.536163 
	C319.710358,427.367157 319.779114,435.815002 325.367065,444.232697 
	C324.146393,445.553345 323.017914,446.739136 321.927734,447.959198 
	C311.477112,459.655182 310.531250,475.337677 319.707764,487.382355 
	C326.280548,496.009399 335.397552,500.522491 345.735535,502.979370 
	C347.548035,503.410156 349.248047,504.314392 351.000000,505.000000 
	C234.453781,505.000000 117.907578,505.000000 1.000000,505.000000 
	C1.000000,480.646973 1.000000,456.292145 1.458037,431.574890 
	C7.037842,431.212463 12.159610,431.212463 17.913277,431.212463 
	C17.913277,412.502167 17.913277,394.284760 17.913277,375.492279 
	C32.273964,375.492279 46.003277,375.492279 59.636093,375.492279 
	C59.636093,369.661499 59.636093,364.429932 59.636093,358.799957 
	C45.617641,358.799957 32.014675,358.799957 18.276730,358.799957 
	C18.276730,345.682739 18.276730,332.988159 18.276730,319.795776 
	C35.570415,319.795776 52.479313,319.795776 69.607399,319.795776 
	C69.607399,314.058838 69.607399,308.824982 69.607399,303.000000 
	C46.535484,303.000000 23.767742,303.000000 1.000000,303.000000 
	C1.000000,202.427094 1.000000,101.854172 1.000000,1.000000 
	C56.687244,1.000000 112.374962,1.000000 168.399017,1.369340 
	C152.179581,2.590803 145.075378,15.730762 135.007797,27.075911 
	C137.626602,26.737087 138.932816,26.581371 140.235062,26.397619 
	C160.816193,23.493555 181.380325,22.924620 201.906311,26.876644 
	C224.830200,31.290350 245.245850,39.985752 258.858063,60.287769 
	C258.991089,60.486221 259.438995,60.473595 260.176056,60.684021 
	C280.674835,40.838337 303.371490,23.761147 330.841522,13.679690 
	C326.273468,8.043064 321.529419,5.113232 314.255188,2.960837 
	C312.773163,2.522315 311.415161,1.664511 310.000000,0.999995 
	C371.951965,1.000000 433.903961,1.000000 496.000000,1.000000 
	C496.000000,127.020859 496.000000,253.041763 495.645935,379.410492 
	C494.837738,378.336914 494.388123,376.914062 493.928772,375.494354 
	C486.590790,352.815643 462.877136,340.149872 440.263611,346.830017 
	C417.382294,353.589264 404.099976,376.950256 410.170532,399.757935 
	C416.259766,422.635895 439.932892,436.753784 462.974548,431.013763 
	C475.776306,427.824646 484.940643,419.925934 491.507507,407.858307 
	C485.742981,405.407593 480.469360,403.165588 475.306244,400.970581 
	C464.905457,413.931183 455.759186,417.776367 444.901306,413.985474 
	C435.721527,410.780457 428.815338,402.362854 428.627411,394.000000 
	C451.086731,394.000000 473.543365,394.000000 496.000000,394.000000 
M259.454712,97.957993 
	C251.673767,105.114212 243.892807,112.270432 235.886795,119.633629 
	C268.201202,134.076767 288.701569,159.799988 305.610931,189.434418 
	C306.469971,188.497345 306.946411,188.054733 307.333496,187.544357 
	C329.382690,158.472076 351.458649,129.419983 373.447083,100.301788 
	C380.454193,91.022629 380.491882,80.351791 373.547211,70.588585 
	C366.014618,59.998817 358.180206,49.623680 350.654785,39.028973 
	C348.908905,36.571007 347.336365,36.061230 344.458344,36.976494 
	C328.695709,41.989323 314.180145,49.535408 301.575317,60.070061 
	C287.275085,72.021683 273.803528,84.964828 259.454712,97.957993 
M282.006317,221.522263 
	C282.799713,220.452057 283.445984,219.220154 284.412628,218.340271 
	C288.134979,214.952057 288.011627,211.587372 285.325134,207.470413 
	C281.874023,202.181778 279.216187,196.378098 275.804230,191.060898 
	C264.535950,173.500565 251.314087,157.765945 232.778137,147.377487 
	C220.367294,140.421829 207.730026,139.446991 194.635773,145.999619 
	C180.711838,152.967392 165.922409,157.491043 150.577911,160.178528 
	C149.357452,160.392273 148.177460,160.837036 146.537567,161.298599 
	C147.753326,163.095337 148.634445,164.475830 149.591965,165.801147 
	C171.340866,195.903885 193.070007,226.020966 214.865570,256.089905 
	C225.875397,271.278931 243.618301,271.511230 255.169861,256.618469 
	C264.050201,245.169525 272.781128,233.604660 282.006317,221.522263 
M104.830032,104.675888 
	C111.739174,114.067062 118.765663,123.375496 125.482880,132.901993 
	C127.391258,135.608505 129.419296,136.707001 132.555603,136.088531 
	C143.471924,133.935944 154.639709,132.640259 165.262772,129.499664 
	C193.690125,121.095436 216.141708,103.101364 236.863922,82.718544 
	C237.854156,81.744522 238.057098,78.999901 237.466614,77.553368 
	C234.578735,70.478706 229.084351,65.644592 222.627823,61.882133 
	C210.694046,54.927856 197.508713,52.354740 183.972122,51.069859 
	C162.468140,49.028713 141.541885,53.035290 120.470215,56.470383 
	C111.178146,57.985168 105.109077,62.018749 100.671783,70.024971 
	C97.390305,75.945763 94.772415,81.964973 96.913696,88.518257 
	C98.687180,93.945885 101.862297,98.915543 104.830032,104.675888 
M286.669189,354.164734 
	C281.588623,351.451935 276.798431,347.579956 271.378418,346.222076 
	C244.361908,339.453552 217.807907,363.937622 220.599716,392.548889 
	C223.909302,426.466461 258.995575,442.709198 287.007294,423.304016 
	C287.231110,423.148956 287.631622,423.248932 288.202087,423.214630 
	C288.474823,425.419556 288.748688,427.633881 289.012665,429.768066 
	C294.630341,429.768066 299.869019,429.768066 305.185791,429.768066 
	C305.185791,401.851532 305.185791,374.298065 305.185791,346.680084 
	C299.524536,346.680084 294.279114,346.680084 289.295624,346.680084 
	C288.567688,349.569153 287.931824,352.092926 286.669189,354.164734 
M70.066216,370.584229 
	C69.325363,372.616119 68.417152,374.604034 67.870255,376.686859 
	C63.637905,392.805450 67.151306,407.225433 78.558014,419.210175 
	C89.350739,430.549835 102.988617,434.680237 118.275749,431.163910 
	C137.828796,426.666351 151.232162,408.956970 151.143753,388.762421 
	C151.054596,368.396790 137.872421,351.061371 118.888603,346.344727 
	C99.380295,341.497772 80.198677,350.804199 70.066216,370.584229 
M179.099503,352.868591 
	C178.605621,351.247437 178.111725,349.626282 177.631516,348.050049 
	C172.313446,348.050049 167.093430,348.050049 161.975616,348.050049 
	C161.975616,375.521729 161.975616,402.586090 161.975616,429.789764 
	C167.481552,429.789764 172.561295,429.789764 178.265076,429.789764 
	C178.265076,427.569733 178.239975,425.625458 178.269058,423.681976 
	C178.480911,409.528900 178.110962,395.335114 179.084732,381.234253 
	C180.119904,366.244141 193.244492,358.962250 207.222946,364.776184 
	C209.457199,365.705475 211.604904,366.842773 214.263443,368.107941 
	C215.295715,363.604034 215.907745,359.473511 217.226257,355.582336 
	C218.605133,351.513092 216.917206,349.967072 213.396576,348.659393 
	C201.471375,344.230011 190.236176,344.670380 179.099503,352.868591 
z"/>
<path fill="#1B508C" opacity="1.000000" stroke="none" 
	d="
M351.468384,505.000000 
	C349.248047,504.314392 347.548035,503.410156 345.735535,502.979370 
	C335.397552,500.522491 326.280548,496.009399 319.707764,487.382355 
	C310.531250,475.337677 311.477112,459.655182 321.927734,447.959198 
	C323.017914,446.739136 324.146393,445.553345 325.367065,444.232697 
	C319.779114,435.815002 319.710358,427.367157 324.073730,418.536163 
	C324.729034,417.209961 323.709351,414.534912 322.697052,412.985199 
	C310.215424,393.877655 313.752441,368.484283 331.024536,354.205719 
	C344.359863,343.181641 362.159607,341.412506 377.290405,349.836151 
	C380.160522,351.433990 381.975311,351.588531 385.152130,349.766632 
	C389.295898,347.390198 394.420837,346.629852 399.199921,345.495575 
	C401.636139,344.917358 402.850311,346.310577 402.714355,348.930908 
	C402.576477,351.589447 402.511139,354.276947 402.740509,356.923431 
	C403.077576,360.812164 402.420563,363.058807 397.597351,363.095642 
	C392.968384,363.131042 394.248535,366.104553 395.606873,369.019989 
	C408.206757,396.063385 391.822235,427.687164 362.846313,431.217255 
	C355.208618,432.147705 347.209900,430.114410 338.516083,429.368195 
	C336.863770,431.970703 339.198456,433.924194 342.481049,434.312958 
	C349.726685,435.171082 357.039764,435.798950 364.330444,435.854858 
	C374.461517,435.932556 384.306366,436.917633 393.392914,441.783264 
	C405.481384,448.256287 411.755524,460.817047 409.192871,473.453156 
	C407.022858,484.153412 400.544739,491.935547 391.229736,496.861633 
	C384.999573,500.156372 377.921509,501.847748 371.111450,504.628326 
	C364.645599,505.000000 358.291199,505.000000 351.468384,505.000000 
M334.619141,399.638214 
	C341.418060,412.492584 353.981903,417.851929 366.208099,413.113037 
	C378.524078,408.339325 385.504272,394.312439 382.081848,381.214355 
	C378.683167,368.207184 366.419128,359.931458 353.441010,361.887604 
	C337.330353,364.315918 328.214050,381.934967 334.619141,399.638214 
M346.791077,452.882538 
	C345.473114,452.889130 343.838379,452.390289 342.889099,452.985168 
	C337.152191,456.580566 331.849915,460.888397 330.942291,468.077545 
	C330.075348,474.944794 334.430359,479.318268 339.929321,482.344788 
	C350.027863,487.902924 360.893982,488.340820 371.928711,486.096008 
	C378.746887,484.708984 384.918518,481.899750 389.225983,476.078583 
	C394.425110,469.052521 392.875031,461.055573 385.020264,457.260681 
	C381.076935,455.355499 376.515228,454.222626 372.136475,453.836243 
	C364.036255,453.121460 355.864868,453.212646 346.791077,452.882538 
z"/>
<path fill="#174D8B" opacity="1.000000" stroke="none" 
	d="
M309.531342,0.999995 
	C311.415161,1.664511 312.773163,2.522315 314.255188,2.960837 
	C321.529419,5.113232 326.273468,8.043064 330.841522,13.679690 
	C303.371490,23.761147 280.674835,40.838337 260.176056,60.684021 
	C259.438995,60.473595 258.991089,60.486221 258.858063,60.287769 
	C245.245850,39.985752 224.830200,31.290350 201.906311,26.876644 
	C181.380325,22.924620 160.816193,23.493555 140.235062,26.397619 
	C138.932816,26.581371 137.626602,26.737087 135.007797,27.075911 
	C145.075378,15.730762 152.179581,2.590803 168.867676,1.369340 
	C179.687561,1.000000 190.375122,1.000000 201.747375,1.374586 
	C215.412964,1.806083 228.393845,1.874161 241.374756,1.880691 
	C241.916351,1.880964 242.458252,1.306638 243.000000,1.000002 
	C265.020905,1.000000 287.041779,1.000000 309.531342,0.999995 
z"/>
<path fill="#1B508B" opacity="1.000000" stroke="none" 
	d="
M496.000000,393.535339 
	C473.543365,394.000000 451.086731,394.000000 428.627411,394.000000 
	C428.815338,402.362854 435.721527,410.780457 444.901306,413.985474 
	C455.759186,417.776367 464.905457,413.931183 475.306244,400.970581 
	C480.469360,403.165588 485.742981,405.407593 491.507507,407.858307 
	C484.940643,419.925934 475.776306,427.824646 462.974548,431.013763 
	C439.932892,436.753784 416.259766,422.635895 410.170532,399.757935 
	C404.099976,376.950256 417.382294,353.589264 440.263611,346.830017 
	C462.877136,340.149872 486.590790,352.815643 493.928772,375.494354 
	C494.388123,376.914062 494.837738,378.336914 495.645935,379.879150 
	C496.000000,384.356903 496.000000,388.713806 496.000000,393.535339 
M437.646271,367.053589 
	C434.880859,370.277039 432.115448,373.500458 428.569824,377.633362 
	C445.213074,377.633362 459.908966,377.633362 474.672577,377.633362 
	C470.778442,364.020935 451.340729,356.552124 437.646271,367.053589 
z"/>
<path fill="#1A4F8B" opacity="1.000000" stroke="none" 
	d="
M1.000000,303.468658 
	C23.767742,303.000000 46.535484,303.000000 69.607399,303.000000 
	C69.607399,308.824982 69.607399,314.058838 69.607399,319.795776 
	C52.479313,319.795776 35.570415,319.795776 18.276730,319.795776 
	C18.276730,332.988159 18.276730,345.682739 18.276730,358.799957 
	C32.014675,358.799957 45.617641,358.799957 59.636093,358.799957 
	C59.636093,364.429932 59.636093,369.661499 59.636093,375.492279 
	C46.003277,375.492279 32.273964,375.492279 17.913277,375.492279 
	C17.913277,394.284760 17.913277,412.502167 17.913277,431.212463 
	C12.159610,431.212463 7.037842,431.212463 1.458037,431.106232 
	C1.000000,388.645782 1.000000,346.291534 1.000000,303.468658 
z"/>
<path fill="#8BB5DF" opacity="1.000000" stroke="none" 
	d="
M242.531342,1.000002 
	C242.458252,1.306638 241.916351,1.880964 241.374756,1.880691 
	C228.393845,1.874161 215.412964,1.806083 202.216034,1.374586 
	C215.354233,1.000000 228.708450,1.000000 242.531342,1.000002 
z"/>
<path fill="#164D8B" opacity="1.000000" stroke="none" 
	d="
M259.713196,97.717453 
	C273.803528,84.964828 287.275085,72.021683 301.575317,60.070061 
	C314.180145,49.535408 328.695709,41.989323 344.458344,36.976494 
	C347.336365,36.061230 348.908905,36.571007 350.654785,39.028973 
	C358.180206,49.623680 366.014618,59.998817 373.547211,70.588585 
	C380.491882,80.351791 380.454193,91.022629 373.447083,100.301788 
	C351.458649,129.419983 329.382690,158.472076 307.333496,187.544357 
	C306.946411,188.054733 306.469971,188.497345 305.610931,189.434418 
	C288.701569,159.799988 268.201202,134.076767 235.886795,119.633629 
	C243.892807,112.270432 251.673767,105.114212 259.713196,97.717453 
z"/>
<path fill="#164D8B" opacity="1.000000" stroke="none" 
	d="
M281.792419,221.806824 
	C272.781128,233.604660 264.050201,245.169525 255.169861,256.618469 
	C243.618301,271.511230 225.875397,271.278931 214.865570,256.089905 
	C193.070007,226.020966 171.340866,195.903885 149.591965,165.801147 
	C148.634445,164.475830 147.753326,163.095337 146.537567,161.298599 
	C148.177460,160.837036 149.357452,160.392273 150.577911,160.178528 
	C165.922409,157.491043 180.711838,152.967392 194.635773,145.999619 
	C207.730026,139.446991 220.367294,140.421829 232.778137,147.377487 
	C251.314087,157.765945 264.535950,173.500565 275.804230,191.060898 
	C279.216187,196.378098 281.874023,202.181778 285.325134,207.470413 
	C288.011627,211.587372 288.134979,214.952057 284.412628,218.340271 
	C283.445984,219.220154 282.799713,220.452057 281.792419,221.806824 
z"/>
<path fill="#174D8B" opacity="1.000000" stroke="none" 
	d="
M104.623230,104.381989 
	C101.862297,98.915543 98.687180,93.945885 96.913696,88.518257 
	C94.772415,81.964973 97.390305,75.945763 100.671783,70.024971 
	C105.109077,62.018749 111.178146,57.985168 120.470215,56.470383 
	C141.541885,53.035290 162.468140,49.028713 183.972122,51.069859 
	C197.508713,52.354740 210.694046,54.927856 222.627823,61.882133 
	C229.084351,65.644592 234.578735,70.478706 237.466614,77.553368 
	C238.057098,78.999901 237.854156,81.744522 236.863922,82.718544 
	C216.141708,103.101364 193.690125,121.095436 165.262772,129.499664 
	C154.639709,132.640259 143.471924,133.935944 132.555603,136.088531 
	C129.419296,136.707001 127.391258,135.608505 125.482880,132.901993 
	C118.765663,123.375496 111.739174,114.067062 104.623230,104.381989 
z"/>
<path fill="#1B508C" opacity="1.000000" stroke="none" 
	d="
M286.982544,354.390717 
	C287.931824,352.092926 288.567688,349.569153 289.295624,346.680084 
	C294.279114,346.680084 299.524536,346.680084 305.185791,346.680084 
	C305.185791,374.298065 305.185791,401.851532 305.185791,429.768066 
	C299.869019,429.768066 294.630341,429.768066 289.012665,429.768066 
	C288.748688,427.633881 288.474823,425.419556 288.202087,423.214630 
	C287.631622,423.248932 287.231110,423.148956 287.007294,423.304016 
	C258.995575,442.709198 223.909302,426.466461 220.599716,392.548889 
	C217.807907,363.937622 244.361908,339.453552 271.378418,346.222076 
	C276.798431,347.579956 281.588623,351.451935 286.982544,354.390717 
M285.638519,376.115601 
	C277.096558,362.256378 262.185577,358.035339 249.766068,365.960815 
	C236.982666,374.118439 233.550766,391.860901 242.377777,404.157349 
	C251.205612,416.454956 267.201935,418.799591 278.860657,409.504822 
	C288.199860,402.059265 290.974518,389.294708 285.638519,376.115601 
z"/>
<path fill="#1B508C" opacity="1.000000" stroke="none" 
	d="
M70.213020,370.236938 
	C80.198677,350.804199 99.380295,341.497772 118.888603,346.344727 
	C137.872421,351.061371 151.054596,368.396790 151.143753,388.762421 
	C151.232162,408.956970 137.828796,426.666351 118.275749,431.163910 
	C102.988617,434.680237 89.350739,430.549835 78.558014,419.210175 
	C67.151306,407.225433 63.637905,392.805450 67.870255,376.686859 
	C68.417152,374.604034 69.325363,372.616119 70.213020,370.236938 
M96.861717,365.169342 
	C95.617226,366.003937 94.311089,366.760345 93.138123,367.685608 
	C84.779961,374.278778 81.100296,386.337891 84.292358,396.536163 
	C87.504417,406.798309 96.797058,414.443726 106.857872,415.101654 
	C117.635109,415.806458 127.158737,410.076538 131.759354,400.119537 
	C136.534317,389.785217 134.425171,377.569641 126.487503,369.586243 
	C118.693108,361.746918 108.370987,360.052216 96.861717,365.169342 
z"/>
<path fill="#194D89" opacity="1.000000" stroke="none" 
	d="
M179.480804,352.784851 
	C190.236176,344.670380 201.471375,344.230011 213.396576,348.659393 
	C216.917206,349.967072 218.605133,351.513092 217.226257,355.582336 
	C215.907745,359.473511 215.295715,363.604034 214.263443,368.107941 
	C211.604904,366.842773 209.457199,365.705475 207.222946,364.776184 
	C193.244492,358.962250 180.119904,366.244141 179.084732,381.234253 
	C178.110962,395.335114 178.480911,409.528900 178.269058,423.681976 
	C178.239975,425.625458 178.265076,427.569733 178.265076,429.789764 
	C172.561295,429.789764 167.481552,429.789764 161.975616,429.789764 
	C161.975616,402.586090 161.975616,375.521729 161.975616,348.050049 
	C167.093430,348.050049 172.313446,348.050049 177.631516,348.050049 
	C178.111725,349.626282 178.605621,351.247437 179.480804,352.784851 
z"/>
<path fill="#FAFCFD" opacity="1.000000" stroke="none" 
	d="
M334.439667,399.298218 
	C328.214050,381.934967 337.330353,364.315918 353.441010,361.887604 
	C366.419128,359.931458 378.683167,368.207184 382.081848,381.214355 
	C385.504272,394.312439 378.524078,408.339325 366.208099,413.113037 
	C353.981903,417.851929 341.418060,412.492584 334.439667,399.298218 
z"/>
<path fill="#F9FBFD" opacity="1.000000" stroke="none" 
	d="
M347.257111,452.925354 
	C355.864868,453.212646 364.036255,453.121460 372.136475,453.836243 
	C376.515228,454.222626 381.076935,455.355499 385.020264,457.260681 
	C392.875031,461.055573 394.425110,469.052521 389.225983,476.078583 
	C384.918518,481.899750 378.746887,484.708984 371.928711,486.096008 
	C360.893982,488.340820 350.027863,487.902924 339.929321,482.344788 
	C334.430359,479.318268 330.075348,474.944794 330.942291,468.077545 
	C331.849915,460.888397 337.152191,456.580566 342.889099,452.985168 
	C343.838379,452.390289 345.473114,452.889130 347.257111,452.925354 
z"/>
<path fill="#F1F7FB" opacity="1.000000" stroke="none" 
	d="
M437.943665,366.841431 
	C451.340729,356.552124 470.778442,364.020935 474.672577,377.633362 
	C459.908966,377.633362 445.213074,377.633362 428.569824,377.633362 
	C432.115448,373.500458 434.880859,370.277039 437.943665,366.841431 
z"/>
<path fill="#F9FCFD" opacity="1.000000" stroke="none" 
	d="
M285.802917,376.463257 
	C290.974518,389.294708 288.199860,402.059265 278.860657,409.504822 
	C267.201935,418.799591 251.205612,416.454956 242.377777,404.157349 
	C233.550766,391.860901 236.982666,374.118439 249.766068,365.960815 
	C262.185577,358.035339 277.096558,362.256378 285.802917,376.463257 
z"/>
<path fill="#FAFCFD" opacity="1.000000" stroke="none" 
	d="
M97.197952,365.001007 
	C108.370987,360.052216 118.693108,361.746918 126.487503,369.586243 
	C134.425171,377.569641 136.534317,389.785217 131.759354,400.119537 
	C127.158737,410.076538 117.635109,415.806458 106.857872,415.101654 
	C96.797058,414.443726 87.504417,406.798309 84.292358,396.536163 
	C81.100296,386.337891 84.779961,374.278778 93.138123,367.685608 
	C94.311089,366.760345 95.617226,366.003937 97.197952,365.001007 
z"/>
</svg>